<!-- sample rectangle -->
<svg width="362" height="109" viewBox="0 0 362 109" fill="none" xmlns="http://www.w3.org/2000/svg">
  <defs></defs>
  <g transform="matrix(1, 0, 0, 1, -77, 0)">
    <title>f</title>
    <path d="M 103.626 58.522 C 103.626 63.701 108.727 66.349 113.867 66.349 C 119.007 66.349 124.147 63.701 124.147 58.522 L 124.147 45.788 C 124.147 40.609 119.007 38 113.867 38 C 108.727 38 103.626 40.609 103.626 45.788 L 103.626 58.522 Z M 104.599 45.788 C 104.599 41.038 109.194 38.974 113.828 38.935 C 118.462 38.935 123.174 40.96 123.174 45.788 L 123.174 58.522 C 123.174 63.117 118.501 65.376 113.867 65.376 C 109.194 65.376 104.599 63.117 104.599 58.522 L 104.599 45.788 Z" fill="#060303" stroke="#231F20" stroke-width="0.666667" stroke-miterlimit="10" style=""></path>
    <path d="M 131.195 38.39 L 130.221 38.39 L 130.221 58.405 C 130.221 63.662 135.05 66.349 139.879 66.349 C 144.707 66.349 149.575 63.662 149.575 58.405 L 149.575 38.39 L 148.601 38.39 L 148.601 58.405 C 148.601 63.078 144.201 65.414 139.879 65.414 C 135.517 65.414 131.195 63.078 131.195 58.405 L 131.195 38.39 Z" fill="#060303" stroke="#231F20" stroke-width="0.666667" stroke-miterlimit="10" style=""></path>
    <path d="M 173.834 65.959 L 164.528 53.654 L 166.007 53.654 C 171.03 53.654 174.535 51.59 174.535 45.866 C 174.418 40.259 170.758 38.39 165.968 38.39 L 156.234 38.39 L 156.234 65.959 L 157.168 65.959 L 157.168 53.654 L 163.437 53.654 L 172.705 65.959 L 173.834 65.959 Z M 157.168 52.798 L 157.168 39.286 L 166.007 39.286 C 170.408 39.207 173.601 40.921 173.601 45.905 C 173.601 50.773 171.03 52.798 166.007 52.798 L 157.168 52.798 Z" fill="#060303" stroke="#231F20" stroke-width="0.666667" stroke-miterlimit="10" style=""></path>
    <path d="M 195.641 38.39 L 176.287 38.39 L 176.287 39.363 L 185.477 39.363 L 185.477 65.96 L 186.451 65.96 L 186.451 39.363 L 195.641 39.363 L 195.641 38.39 Z" fill="#060303" stroke="#231F20" stroke-width="0.666667" stroke-miterlimit="10" style=""></path>
    <path d="M 200.702 52.681 L 218.109 52.681 L 218.109 65.959 L 219.082 65.959 L 219.082 38.39 L 218.109 38.39 L 218.109 51.708 L 200.702 51.708 L 200.702 38.39 L 199.729 38.39 L 199.729 65.959 L 200.702 65.959 L 200.702 52.681 Z" fill="#060303" stroke="#231F20" stroke-width="0.666667" stroke-miterlimit="10"></path>
    <path d="M 99.887 39.363 L 99.887 38.39 L 84 38.39 L 84 65.959 L 84.973 65.959 L 84.973 53.187 L 98.525 53.187 L 98.525 52.214 L 84.973 52.214 L 84.973 39.363 L 99.887 39.363 Z" fill="#060303" stroke="#231F20" stroke-width="0.666667" stroke-miterlimit="10" style=""></path>
  </g>
  <g style="" transform="matrix(1, 0, 0, 1, -77, 0)">
    <title>s</title>
    <path d="M 243.207 44.698 C 243.48 40.571 247.219 38.935 251.112 38.935 C 254.188 38.935 257.343 40.103 258.783 42.596 L 259.679 42.245 C 257.966 39.247 254.656 38 251.112 38 C 246.712 38 242.39 40.142 242.234 44.698 C 242 49.916 246.946 51.473 251.074 52.33 C 255.356 53.265 259.64 54.628 259.29 59.534 C 258.745 63.584 254.967 65.414 251.151 65.414 C 247.919 65.414 244.687 64.09 242.896 61.52 L 242 61.91 C 244.064 65.025 247.685 66.349 251.074 66.349 C 255.59 66.349 260.03 63.973 260.341 59.534 C 260.73 54.121 255.824 52.291 251.307 51.396 C 246.868 50.501 242.896 48.787 243.207 44.698 Z" fill="#060303" stroke="#060303" stroke-width="0.666667" stroke-miterlimit="10"></path>
    <path d="M 266.571 38.39 L 265.598 38.39 L 265.598 65.96 L 266.571 65.96 L 266.571 38.39 Z" fill="#060303" stroke="#060303" stroke-width="0.666667" stroke-miterlimit="10"></path>
    <path d="M 272.84 58.522 C 272.84 63.74 277.669 66.349 282.497 66.349 C 287.326 66.349 292.194 63.74 292.194 58.522 L 292.194 52.369 L 282.77 52.369 L 282.77 53.304 L 291.22 53.304 L 291.22 58.522 C 291.22 63.117 286.82 65.414 282.497 65.414 C 278.136 65.414 273.814 63.117 273.814 58.522 L 273.814 45.71 C 273.814 41.194 278.097 38.974 282.419 38.974 C 285.574 38.974 288.728 40.064 290.13 42.596 L 291.026 42.011 C 289.39 39.364 285.963 38 282.497 38 C 277.669 38 272.84 40.649 272.84 45.71 L 272.84 58.522 Z" fill="#060303" stroke="#060303" stroke-width="0.666667" stroke-miterlimit="10"></path>
    <path d="M 299.241 38.39 L 297.722 38.39 L 297.722 65.96 L 298.735 65.96 L 298.774 39.636 L 314.934 65.96 L 316.609 65.96 L 316.609 38.39 L 315.635 38.39 L 315.635 65.025 L 299.241 38.39 Z" fill="#060303" stroke="#060303" stroke-width="0.666667" stroke-miterlimit="10"></path>
    <path d="M 325.253 56.107 L 337.792 56.107 L 341.452 65.959 L 342.503 65.959 L 332.301 38.39 L 330.743 38.39 L 320.541 65.959 L 321.593 65.959 L 325.253 56.107 Z M 331.6 39.324 L 337.441 55.134 L 325.603 55.134 L 331.444 39.324 L 331.6 39.324 Z" fill="#060303" stroke="#060303" stroke-width="0.666667" stroke-miterlimit="10"></path>
    <path d="M 361.156 65.959 L 361.156 64.986 L 347.371 64.986 L 347.371 38.39 L 346.397 38.39 L 346.397 65.959 L 361.156 65.959 Z" fill="#060303" stroke="#060303" stroke-width="0.666667" stroke-miterlimit="10"></path>
  </g>
  <g style="" transform="matrix(1, 0, 0, 1, 289.108459, 0)">
    <title>logo</title>
    <g opacity="0.160004" style="">
      <path d="M12.118 80.1539C5.507 80.1539 0.0979233 74.7448 0.0979233 68.1338V12.0201C0.0979233 5.40911 5.507 3.8147e-05 12.118 3.8147e-05C18.729 3.8147e-05 24.1381 5.40911 24.1381 12.0201V68.1338C24.1381 74.7448 18.729 80.1539 12.118 80.1539Z" fill="#060303"></path>
    </g>
    <path d="M 39.444 52.485 L 12.242 52.485 C 5.509 52.485 0 46.976 0 40.244 C 0 33.51 5.509 28.002 12.242 28.002 L 39.444 28.002 C 46.177 28.002 51.686 33.51 51.686 40.244 C 51.686 46.976 46.177 52.485 39.444 52.485 Z" fill="#E7A423" style=""></path>
    <path d="M 25.412 80.154 L 12.118 80.154 C 5.507 80.154 0.098 74.745 0.098 68.134 C 0.098 61.523 5.507 56.114 12.118 56.114 L 25.412 56.114 C 32.023 56.114 37.432 61.523 37.432 68.134 C 37.432 74.745 32.023 80.154 25.412 80.154 Z" fill="#0B8241"></path>
    <path d="M 60.789 24.04 L 12.118 24.04 C 5.507 24.04 0.098 18.631 0.098 12.02 C 0.098 5.409 5.507 0 12.118 0 L 60.789 0 C 67.4 0 72.809 5.409 72.809 12.02 C 72.809 18.631 67.4 24.04 60.789 24.04 Z" fill="#B61F24"></path>
    <path d="M 24.138 12.02 C 24.138 18.659 18.757 24.04 12.118 24.04 C 5.479 24.04 0.098 18.659 0.098 12.02 C 0.098 5.381 5.479 0 12.118 0 C 18.757 0 24.138 5.381 24.138 12.02 Z" fill="#821517"></path>
    <path d="M 24.581 40.244 C 24.581 47.005 19.101 52.485 12.34 52.485 C 5.579 52.485 0.098 47.005 0.098 40.244 C 0.098 33.483 5.579 28.002 12.34 28.002 C 19.101 28.002 24.581 33.483 24.581 40.244 Z" fill="#C08E2C" style=""></path>
    <path d="M 24.138 68.134 C 24.138 74.772 18.757 80.154 12.118 80.154 C 5.479 80.154 0.098 74.772 0.098 68.134 C 0.098 61.495 5.479 56.113 12.118 56.113 C 18.757 56.113 24.138 61.495 24.138 68.134 Z" fill="#035028"></path>
    <path d="M 24.138 96.136 C 24.138 102.774 18.757 108.156 12.118 108.156 C 5.479 108.156 0.098 102.774 0.098 96.136 C 0.098 89.497 5.479 84.115 12.118 84.115 C 18.757 84.115 24.138 89.497 24.138 96.136 Z" fill="#808285" style=""></path>
  </g>
</svg>